<svg width="28" height="28" viewBox="0 0 28 28" fill="none" xmlns="http://www.w3.org/2000/svg">
<path fill-rule="evenodd" clip-rule="evenodd" d="M23.0933 6.31844C24.0967 6.58801 24.8905 7.38177 25.1601 8.38519C25.6543 10.2123 25.6693 14.0014 25.6693 14.0014C25.6693 14.0014 25.6693 17.8054 25.175 19.6175C24.9055 20.621 24.1117 21.4147 23.1083 21.6843C21.2961 22.1785 14.0026 22.1785 14.0026 22.1785C14.0026 22.1785 6.70906 22.1785 4.89691 21.6843C3.89349 21.4147 3.09974 20.621 2.83016 19.6175C2.33594 17.7904 2.33594 14.0014 2.33594 14.0014C2.33594 14.0014 2.33594 10.2123 2.81518 8.40017C3.08476 7.39675 3.87851 6.603 4.88194 6.33342C6.69409 5.83919 13.9876 5.82422 13.9876 5.82422C13.9876 5.82422 21.2812 5.82422 23.0933 6.31844ZM17.7168 14.0014L11.6663 17.5059V10.4969L17.7168 14.0014Z" fill="white"/>
</svg>
